<svg width="128" height="128" viewBox="0 0 128 128" fill="none" xmlns="http://www.w3.org/2000/svg">
<path d="M44.9386 30.912H41.6639V35.5947H44.7252C45.5679 35.5947 46.2079 35.4027 46.6666 35.008C47.1146 34.624 47.3492 34.0694 47.3492 33.3654C47.3492 31.744 46.5492 30.9227 44.9386 30.912Z" fill="#801336"/>
<path d="M25.7492 10.4533V47.84H62.7626V10.4533H25.7492ZM50.1972 37.76C48.9919 38.72 47.2212 39.2107 44.8639 39.232H37.0132V19.68H43.9679C46.4532 19.68 48.3519 20.1387 49.6532 21.0667C50.9546 21.9947 51.6052 23.328 51.6052 25.0773C51.6052 26.0907 51.3706 26.9547 50.9119 27.6693C50.4532 28.384 49.7706 28.9173 48.8746 29.2587C49.8879 29.5253 50.6559 30.0267 51.1999 30.7627C51.7439 31.4987 52.0106 32.3947 52.0106 33.4507C51.9999 35.36 51.4026 36.8 50.1972 37.76Z" fill="#801336"/>
<path d="M46.2826 27.264C46.7199 26.9013 46.9332 26.3573 46.9332 25.632C46.9332 24.8107 46.6986 24.2133 46.2292 23.8507C45.7599 23.488 45.0026 23.3067 43.9572 23.3067H41.6746V27.8293H44.1066C45.1199 27.8187 45.8452 27.6373 46.2826 27.264Z" fill="#801336"/>
<path d="M65.1732 10.4533V47.84H102.187V10.4533H65.1732ZM86.0479 39.2214H81.3972V19.68H86.0479V39.2214Z" fill="#801336"/>
<path d="M25.7492 50.4V87.7867H62.7626V50.4H25.7492ZM42.6772 66.2507C43.2106 66.656 44.1386 67.0827 45.4826 67.5094C46.8159 67.9467 47.9146 68.416 48.7786 68.9174C50.8692 70.1334 51.9146 71.808 51.9146 73.952C51.9146 75.6587 51.2746 77.0027 50.0052 77.9734C48.7252 78.9547 46.9759 79.4347 44.7572 79.4347C43.1892 79.4347 41.7706 79.1467 40.5012 78.5814C39.2319 78.016 38.2719 77.2374 37.6319 76.2454C36.9919 75.2534 36.6719 74.1227 36.6719 72.832H41.3439C41.3439 73.8774 41.6106 74.656 42.1439 75.1467C42.6772 75.648 43.5519 75.8934 44.7572 75.8934C45.5252 75.8934 46.1332 75.7227 46.5812 75.392C47.0292 75.0614 47.2532 74.5814 47.2532 73.9734C47.2532 73.28 47.0079 72.7467 46.5279 72.3627C46.0479 71.9787 45.1946 71.584 43.9786 71.168C42.9652 70.8374 41.9626 70.432 41.0026 69.9734C38.4959 68.7254 37.2372 67.0187 37.2372 64.8427C37.2159 63.808 37.5466 62.8054 38.1759 61.9734C38.8052 61.1414 39.6799 60.5014 40.8319 60.0427C41.9839 59.584 43.2639 59.3494 44.6826 59.3494C46.0692 59.3494 47.3172 59.6054 48.4266 60.096C49.5252 60.5974 50.3892 61.312 50.9972 62.24C51.6159 63.1787 51.9359 64.288 51.9146 65.4187H47.2639C47.2639 64.6187 47.0186 64.0107 46.5386 63.5627C46.0586 63.1254 45.4079 62.9014 44.5759 62.9014C43.7439 62.9014 43.0826 63.0827 42.6026 63.456C42.1226 63.8294 41.8772 64.2987 41.8772 64.8747C41.8772 65.3974 42.1439 65.8454 42.6772 66.2507Z" fill="#801336"/>
<path d="M65.1732 50.4V87.7867H102.187V50.4H65.1732ZM92.2452 63.264H86.4426V79.168H81.7812V63.264H76.0852V59.6267H92.2559L92.2452 63.264Z" fill="#801336"/>
<path d="M15.5344 112.44L15.3375 114.133H9.14844L10.55 102.747H12.5894L11.3926 112.44H15.5344Z" fill="#801336"/>
<path d="M31.0448 104.377L30.6432 107.614H34.2417L34.0448 109.181H30.4464L30.0369 112.503H34.6354L34.4307 114.133H27.7849L29.1865 102.747H35.8244L35.6197 104.377H31.0448Z" fill="#801336"/>
<path d="M53.3543 109.85L52.5826 105.952C52.5512 105.774 52.5144 105.566 52.4724 105.33C52.4304 105.094 52.3884 104.837 52.3464 104.558C52.2414 104.837 52.1391 105.094 52.0393 105.33C51.9396 105.566 51.8504 105.776 51.7716 105.96L50.0472 109.85H53.3543ZM56.3229 114.133H54.7402C54.5617 114.133 54.4226 114.091 54.3228 114.007C54.2283 113.918 54.1601 113.805 54.1181 113.669L53.6457 111.291H49.4015L48.3464 113.669C48.2886 113.79 48.1941 113.897 48.0629 113.992C47.9369 114.086 47.7899 114.133 47.6219 114.133H46.0156L51.5196 102.747H53.6063L56.3229 114.133Z" fill="#801336"/>
<path d="M73.9609 108.456H77.5043L76.9373 113.031C76.3599 113.451 75.7378 113.761 75.0712 113.96C74.4045 114.16 73.6433 114.259 72.7877 114.259C72.0895 114.259 71.4543 114.133 70.8821 113.881C70.3152 113.629 69.827 113.28 69.4175 112.834C69.0133 112.383 68.701 111.85 68.4805 111.236C68.26 110.616 68.1498 109.942 68.1498 109.212C68.1498 108.572 68.2207 107.965 68.3624 107.393C68.5041 106.816 68.7036 106.283 68.9608 105.795C69.2233 105.306 69.5383 104.868 69.9057 104.48C70.2732 104.086 70.6827 103.753 71.1341 103.48C71.5856 103.201 72.0738 102.989 72.5987 102.842C73.1289 102.695 73.6827 102.621 74.2601 102.621C74.7221 102.621 75.1394 102.663 75.5121 102.747C75.8901 102.826 76.2313 102.936 76.5358 103.078C76.8402 103.22 77.1132 103.385 77.3547 103.574C77.5961 103.763 77.8114 103.963 78.0003 104.173L77.3389 105.023C77.2339 105.17 77.1053 105.262 76.9531 105.299C76.8009 105.33 76.646 105.293 76.4885 105.188C76.3363 105.089 76.184 104.992 76.0318 104.897C75.8796 104.797 75.7116 104.708 75.5279 104.629C75.3494 104.551 75.1447 104.488 74.9137 104.44C74.6827 104.393 74.4124 104.369 74.1027 104.369C73.5357 104.369 73.016 104.485 72.5436 104.716C72.0711 104.942 71.6643 105.264 71.3231 105.684C70.9819 106.099 70.7168 106.6 70.5278 107.188C70.3388 107.771 70.2443 108.422 70.2443 109.141C70.2443 109.687 70.3126 110.175 70.4491 110.606C70.5908 111.036 70.7876 111.401 71.0396 111.7C71.2916 112 71.5934 112.23 71.9451 112.393C72.3021 112.551 72.6984 112.629 73.1341 112.629C73.5646 112.629 73.9425 112.59 74.268 112.511C74.5935 112.427 74.9058 112.309 75.205 112.157L75.4649 109.992H74.205C74.0738 109.992 73.974 109.957 73.9058 109.889C73.8428 109.816 73.8166 109.726 73.8271 109.622L73.9609 108.456Z" fill="#801336"/>
<path d="M94.2641 112.496C94.6316 112.496 94.9675 112.427 95.272 112.291C95.5817 112.149 95.8521 111.952 96.083 111.7C96.314 111.443 96.503 111.136 96.65 110.779C96.8022 110.422 96.9046 110.026 96.9571 109.59L97.7917 102.747H99.839L98.9965 109.59C98.9125 110.262 98.734 110.884 98.461 111.456C98.1881 112.028 97.8364 112.522 97.4059 112.937C96.9807 113.351 96.482 113.677 95.9098 113.913C95.3429 114.144 94.7208 114.259 94.0436 114.259C93.3665 114.259 92.7707 114.144 92.2562 113.913C91.747 113.677 91.3297 113.351 91.0042 112.937C90.6788 112.522 90.4504 112.028 90.3192 111.456C90.1879 110.884 90.1643 110.262 90.2483 109.59L91.0672 102.747H93.1145L92.2798 109.582C92.2273 110.018 92.23 110.417 92.2877 110.779C92.3507 111.136 92.4662 111.443 92.6342 111.7C92.8074 111.952 93.0279 112.149 93.2956 112.291C93.5686 112.427 93.8914 112.496 94.2641 112.496Z" fill="#801336"/>
<path d="M114.987 104.377L114.586 107.614H118.184L117.987 109.181H114.389L113.979 112.503H118.578L118.373 114.133H111.727L113.129 102.747H119.767L119.562 104.377H114.987Z" fill="#801336"/>
</svg>
