<svg width="128" height="128" viewBox="0 0 128 128" fill="none" xmlns="http://www.w3.org/2000/svg">
<path d="M32.134 33.8626H26.6503V41.6132H31.7767C33.1878 41.6132 34.2596 41.2955 35.0276 40.6422C35.7778 40.0066 36.1708 39.0886 36.1708 37.9233C36.1708 35.2397 34.8311 33.8803 32.134 33.8626Z" fill="#801336"/>
<path d="M0 0V61.8814H61.9816V0H0ZM40.94 45.1972C38.9216 46.7862 35.9565 47.5983 32.0089 47.6337H18.8624V15.2717H30.5085C34.6704 15.2717 37.8498 16.0309 40.029 17.5669C42.2082 19.1029 43.2978 21.3098 43.2978 24.2052C43.2978 25.8825 42.9048 27.3126 42.1367 28.4954C41.3687 29.6783 40.2255 30.5611 38.7251 31.1261C40.422 31.5674 41.7081 32.3972 42.619 33.6154C43.53 34.8337 43.9765 36.3167 43.9765 38.0646C43.9587 41.2248 42.9584 43.6083 40.94 45.1972Z" fill="#801336"/>
<path d="M34.3846 27.8246C35.1169 27.2243 35.4742 26.3239 35.4742 25.1233C35.4742 23.7639 35.0812 22.7752 34.2953 22.1749C33.5093 21.5746 32.2411 21.2745 30.4906 21.2745H26.6681V28.7603H30.7407C32.4376 28.7426 33.6522 28.4425 34.3846 27.8246Z" fill="#801336"/>
<path d="M66.0184 0V61.8814H128V0H66.0184ZM100.975 47.616H93.1867V15.2717H100.975V47.616Z" fill="#801336"/>
<path d="M0 66.1186V128H61.9816V66.1186H0ZM28.3472 92.3542C29.2403 93.0251 30.7943 93.7313 33.0449 94.4375C35.2777 95.1614 37.1175 95.9382 38.5643 96.768C42.0653 98.7807 43.8158 101.553 43.8158 105.101C43.8158 107.926 42.7441 110.151 40.6185 111.757C38.475 113.382 35.5456 114.176 31.8303 114.176C29.2046 114.176 26.8289 113.699 24.7033 112.764C22.5777 111.828 20.9701 110.539 19.8984 108.897C18.8267 107.255 18.2908 105.384 18.2908 103.247H26.1144C26.1144 104.978 26.561 106.266 27.4541 107.079C28.3472 107.908 29.8119 108.314 31.8303 108.314C33.1164 108.314 34.1345 108.032 34.8847 107.485C35.6349 106.937 36.01 106.143 36.01 105.137C36.01 103.989 35.5992 103.106 34.7954 102.471C33.9916 101.835 32.5627 101.182 30.5264 100.493C28.8295 99.9459 27.1504 99.275 25.5428 98.5159C21.3452 96.4502 19.2375 93.6254 19.2375 90.0237C19.2018 88.3112 19.7555 86.6516 20.8094 85.2745C21.8632 83.8974 23.3279 82.8381 25.257 82.0789C27.1862 81.3197 29.3296 80.9313 31.7053 80.9313C34.0274 80.9313 36.1172 81.355 37.9749 82.1672C39.8147 82.997 41.2615 84.1799 42.2796 85.7159C43.3156 87.2695 43.8515 89.1056 43.8158 90.9771H36.0279C36.0279 89.653 35.6171 88.6466 34.8133 87.9051C34.0095 87.1812 32.9199 86.8105 31.5267 86.8105C30.1334 86.8105 29.026 87.1106 28.2222 87.7286C27.4184 88.3465 27.0075 89.1233 27.0075 90.0767C27.0075 90.9418 27.4541 91.6833 28.3472 92.3542Z" fill="#801336"/>
<path d="M66.0184 66.1186V128H128V66.1186H66.0184ZM111.353 87.4108H101.636V113.735H93.8297V87.4108H84.2914V81.3904H111.37L111.353 87.4108Z" fill="#801336"/>
</svg>
