<svg width="72" height="72" viewBox="0 0 72 72" fill="none" xmlns="http://www.w3.org/2000/svg">
<path d="M18.0754 19.0477H14.9908V23.4074H17.8744C18.6682 23.4074 19.271 23.2287 19.703 22.8612C20.125 22.5037 20.3461 21.9873 20.3461 21.3319C20.3461 19.8223 19.5925 19.0577 18.0754 19.0477Z" fill="white"/>
<path d="M0 0V34.8083H34.8646V0H0ZM23.0287 25.4234C21.8934 26.3172 20.2255 26.7741 18.005 26.7939H10.6101V8.59035H17.161C19.5021 8.59035 21.2905 9.01738 22.5163 9.88138C23.7421 10.7454 24.355 11.9868 24.355 13.6154C24.355 14.5589 24.134 15.3633 23.7019 16.0287C23.2699 16.6941 22.6268 17.1906 21.7829 17.5084C22.7374 17.7567 23.4608 18.2234 23.9732 18.9087C24.4856 19.5939 24.7368 20.4281 24.7368 21.4113C24.7268 23.189 24.1641 24.5297 23.0287 25.4234Z" fill="white"/>
<path d="M19.3413 15.6513C19.7533 15.3137 19.9542 14.8072 19.9542 14.1319C19.9542 13.3672 19.7332 12.811 19.2911 12.4734C18.849 12.1357 18.1356 11.9669 17.151 11.9669H15.0008V16.1777H17.2917C18.2462 16.1677 18.9294 15.9989 19.3413 15.6513Z" fill="white"/>
<path d="M37.1354 0V34.8083H72V0H37.1354ZM56.7982 26.784H52.4175V8.59035H56.7982V26.784Z" fill="white"/>
<path d="M0 37.1917V72H34.8646V37.1917H0ZM15.9453 51.9492C16.4477 52.3266 17.3218 52.7239 18.5878 53.1211C19.8437 53.5283 20.8786 53.9652 21.6924 54.432C23.6617 55.5641 24.6464 57.1233 24.6464 59.1194C24.6464 60.7084 24.0435 61.9597 22.8479 62.8635C21.6422 63.7771 19.9944 64.224 17.9045 64.224C16.4276 64.224 15.0913 63.9559 13.8956 63.4295C12.7 62.9032 11.7957 62.1782 11.1929 61.2546C10.59 60.331 10.2886 59.2783 10.2886 58.0767H14.6894C14.6894 59.0499 14.9405 59.7749 15.4429 60.2317C15.9453 60.6985 16.7692 60.9269 17.9045 60.9269C18.628 60.9269 19.2007 60.768 19.6227 60.4601C20.0447 60.1523 20.2556 59.7054 20.2556 59.1393C20.2556 58.4938 20.0246 57.9972 19.5724 57.6397C19.1203 57.2822 18.3165 56.9148 17.1711 56.5275C16.2166 56.2196 15.2721 55.8422 14.3678 55.4152C12.0067 54.2532 10.8211 52.6643 10.8211 50.6384C10.801 49.675 11.1125 48.7415 11.7053 47.9669C12.2981 47.1923 13.122 46.5964 14.2071 46.1694C15.2922 45.7423 16.4979 45.5239 17.8342 45.5239C19.1404 45.5239 20.3159 45.7622 21.3609 46.219C22.3958 46.6858 23.2096 47.3512 23.7823 48.2152C24.365 49.0891 24.6665 50.1219 24.6464 51.1746H20.2657C20.2657 50.4298 20.0346 49.8637 19.5825 49.4466C19.1303 49.0394 18.5174 48.8309 17.7337 48.8309C16.95 48.8309 16.3271 48.9997 15.875 49.3473C15.4228 49.6949 15.1917 50.1319 15.1917 50.6681C15.1917 51.1548 15.4429 51.5719 15.9453 51.9492Z" fill="white"/>
<path d="M37.1354 37.1917V72H72V37.1917H37.1354ZM62.6358 49.1686H57.17V63.9757H52.7792V49.1686H47.4139V45.7821H62.6458L62.6358 49.1686Z" fill="white"/>
</svg>
