<svg width="800" height="400" viewBox="0 0 800 400" fill="none" xmlns="http://www.w3.org/2000/svg">
<path d="M346.39 106.94H337.18V120.11H345.79C348.16 120.11 349.96 119.57 351.25 118.46C352.51 117.38 353.17 115.82 353.17 113.84C353.17 109.28 350.92 106.97 346.39 106.94Z" fill="#801336"/>
<path d="M292.42 49.4V154.55H396.52V49.4H292.42ZM361.18 126.2C357.79 128.9 352.81 130.28 346.18 130.34H324.1V75.35H343.66C350.65 75.35 355.99 76.64 359.65 79.25C363.31 81.86 365.14 85.61 365.14 90.53C365.14 93.38 364.48 95.81 363.19 97.82C361.9 99.83 359.98 101.33 357.46 102.29C360.31 103.04 362.47 104.45 364 106.52C365.53 108.59 366.28 111.11 366.28 114.08C366.25 119.45 364.57 123.5 361.18 126.2Z" fill="#801336"/>
<path d="M350.17 96.68C351.4 95.66 352 94.13 352 92.09C352 89.78 351.34 88.1 350.02 87.08C348.7 86.06 346.57 85.55 343.63 85.55H337.21V98.27H344.05C346.9 98.24 348.94 97.73 350.17 96.68Z" fill="#801336"/>
<path d="M403.3 49.4V154.55H507.4V49.4H403.3ZM462.01 130.31H448.93V75.35H462.01V130.31Z" fill="#801336"/>
<path d="M292.42 161.75V266.9H396.52V161.75H292.42ZM340.03 206.33C341.53 207.47 344.14 208.67 347.92 209.87C351.67 211.1 354.76 212.42 357.19 213.83C363.07 217.25 366.01 221.96 366.01 227.99C366.01 232.79 364.21 236.57 360.64 239.3C357.04 242.06 352.12 243.41 345.88 243.41C341.47 243.41 337.48 242.6 333.91 241.01C330.34 239.42 327.64 237.23 325.84 234.44C324.04 231.65 323.14 228.47 323.14 224.84H336.28C336.28 227.78 337.03 229.97 338.53 231.35C340.03 232.76 342.49 233.45 345.88 233.45C348.04 233.45 349.75 232.97 351.01 232.04C352.27 231.11 352.9 229.76 352.9 228.05C352.9 226.1 352.21 224.6 350.86 223.52C349.51 222.44 347.11 221.33 343.69 220.16C340.84 219.23 338.02 218.09 335.32 216.8C328.27 213.29 324.73 208.49 324.73 202.37C324.67 199.46 325.6 196.64 327.37 194.3C329.14 191.96 331.6 190.16 334.84 188.87C338.08 187.58 341.68 186.92 345.67 186.92C349.57 186.92 353.08 187.64 356.2 189.02C359.29 190.43 361.72 192.44 363.43 195.05C365.17 197.69 366.07 200.81 366.01 203.99H352.93C352.93 201.74 352.24 200.03 350.89 198.77C349.54 197.54 347.71 196.91 345.37 196.91C343.03 196.91 341.17 197.42 339.82 198.47C338.47 199.52 337.78 200.84 337.78 202.46C337.78 203.93 338.53 205.19 340.03 206.33Z" fill="#801336"/>
<path d="M403.3 161.75V266.9H507.4V161.75H403.3ZM479.44 197.93H463.12V242.66H450.01V197.93H433.99V187.7H479.47L479.44 197.93Z" fill="#801336"/>
<path d="M263.691 336.239L263.137 341H245.73L249.672 308.977H255.408L252.042 336.239H263.691Z" fill="#801336"/>
<path d="M307.314 313.561L306.184 322.663H316.305L315.751 327.07H305.631L304.479 336.416H317.412L316.837 341H298.145L302.087 308.977H320.756L320.181 313.561H307.314Z" fill="#801336"/>
<path d="M370.059 328.953L367.889 317.99C367.8 317.488 367.697 316.905 367.579 316.241C367.461 315.576 367.343 314.853 367.225 314.071C366.929 314.853 366.641 315.576 366.361 316.241C366.08 316.905 365.829 317.496 365.608 318.013L360.758 328.953H370.059ZM378.408 341H373.957C373.455 341 373.064 340.882 372.783 340.646C372.517 340.395 372.326 340.077 372.207 339.693L370.879 333.005H358.942L355.974 339.693C355.812 340.033 355.546 340.336 355.177 340.601C354.823 340.867 354.409 341 353.937 341H349.419L364.899 308.977H370.768L378.408 341Z" fill="#801336"/>
<path d="M428.015 325.033H437.981L436.387 337.9C434.762 339.081 433.013 339.952 431.138 340.513C429.263 341.074 427.122 341.354 424.716 341.354C422.752 341.354 420.966 341 419.356 340.291C417.762 339.583 416.389 338.601 415.237 337.346C414.1 336.076 413.222 334.578 412.602 332.85C411.982 331.108 411.672 329.211 411.672 327.159C411.672 325.358 411.871 323.652 412.27 322.043C412.668 320.419 413.229 318.921 413.953 317.547C414.691 316.174 415.577 314.942 416.61 313.849C417.644 312.742 418.795 311.804 420.065 311.037C421.335 310.254 422.708 309.656 424.184 309.243C425.675 308.829 427.233 308.623 428.857 308.623C430.156 308.623 431.33 308.741 432.378 308.977C433.441 309.198 434.401 309.508 435.257 309.907C436.113 310.306 436.881 310.771 437.56 311.302C438.239 311.834 438.845 312.395 439.376 312.985L437.516 315.377C437.221 315.791 436.859 316.049 436.431 316.152C436.003 316.241 435.567 316.138 435.124 315.842C434.696 315.562 434.268 315.289 433.84 315.023C433.412 314.742 432.939 314.491 432.422 314.27C431.92 314.048 431.345 313.871 430.695 313.738C430.045 313.605 429.285 313.539 428.414 313.539C426.819 313.539 425.358 313.864 424.029 314.513C422.7 315.148 421.556 316.056 420.596 317.237C419.637 318.404 418.891 319.814 418.36 321.467C417.828 323.106 417.562 324.937 417.562 326.96C417.562 328.495 417.754 329.868 418.138 331.079C418.537 332.289 419.09 333.315 419.799 334.157C420.508 334.999 421.357 335.648 422.346 336.106C423.35 336.549 424.465 336.77 425.69 336.77C426.901 336.77 427.964 336.659 428.879 336.438C429.794 336.202 430.673 335.87 431.514 335.441L432.245 329.351H428.702C428.333 329.351 428.052 329.255 427.86 329.063C427.683 328.857 427.609 328.606 427.639 328.31L428.015 325.033Z" fill="#801336"/>
<path d="M485.118 336.394C486.152 336.394 487.096 336.202 487.953 335.818C488.824 335.419 489.584 334.866 490.234 334.157C490.883 333.434 491.415 332.57 491.828 331.566C492.256 330.562 492.544 329.447 492.692 328.222L495.039 308.977H500.797L498.428 328.222C498.192 330.112 497.69 331.861 496.922 333.47C496.154 335.08 495.165 336.468 493.954 337.634C492.758 338.8 491.356 339.716 489.747 340.38C488.152 341.03 486.403 341.354 484.498 341.354C482.593 341.354 480.918 341.03 479.471 340.38C478.039 339.716 476.865 338.8 475.95 337.634C475.034 336.468 474.392 335.08 474.023 333.47C473.654 331.861 473.587 330.112 473.824 328.222L476.127 308.977H481.885L479.537 328.2C479.39 329.425 479.397 330.547 479.559 331.566C479.737 332.57 480.061 333.434 480.534 334.157C481.021 334.866 481.641 335.419 482.394 335.818C483.162 336.202 484.07 336.394 485.118 336.394Z" fill="#801336"/>
<path d="M543.402 313.561L542.273 322.663H552.393L551.84 327.07H541.719L540.568 336.416H553.501L552.925 341H534.234L538.176 308.977H556.845L556.269 313.561H543.402Z" fill="#801336"/>
</svg>
