<svg width="410" height="399" viewBox="0 0 410 399" fill="none" xmlns="http://www.w3.org/2000/svg">
<ellipse cx="383" cy="27" rx="27" ry="27" transform="rotate(-90 383 27)" fill="url(#paint0_linear)"/>
<ellipse cx="333.5" cy="349.5" rx="49.5" ry="49.5" transform="rotate(-90 333.5 349.5)" fill="url(#paint1_linear)"/>
<path d="M39.5 171.5L227.324 21.4397C270.874 47.6898 300 95.4436 300 150C300 232.843 232.843 300 150 300C130.804 300 112.45 296.394 95.5792 289.823L240.5 165.5L85.7186 285.567C35.0388 261.494 0 209.839 0 150C0 67.1573 67.1573 0 150 0C169.475 0 188.083 3.71142 205.156 10.4655L39.5 171.5Z" fill="url(#paint2_linear)"/>
<defs>
<linearGradient id="paint0_linear" x1="371.255" y1="2.889" x2="408.947" y2="31.482" gradientUnits="userSpaceOnUse">
<stop stop-color="#84002F"/>
<stop offset="0.788701" stop-color="#CC002F"/>
</linearGradient>
<linearGradient id="paint1_linear" x1="311.967" y1="305.297" x2="381.069" y2="357.717" gradientUnits="userSpaceOnUse">
<stop stop-color="#84002F"/>
<stop offset="0.788701" stop-color="#CC002F"/>
</linearGradient>
<linearGradient id="paint2_linear" x1="84.75" y1="16.05" x2="294.15" y2="174.9" gradientUnits="userSpaceOnUse">
<stop stop-color="#84002F"/>
<stop offset="0.788701" stop-color="#CC002F"/>
</linearGradient>
</defs>
</svg>
